<svg
    xmlns="http://www.w3.org/2000/svg"
    width="20"
    height="20"
    viewBox="0 0 20 20"
    fill="none"
  >
    <path
      d="M17.9154 6.82495C17.9154 4.71662 16.2487 2.99163 14.1654 2.87496V2.70833C14.1654 2.25 13.7904 1.875 13.332 1.875C12.8737 1.875 12.4987 2.25 12.4987 2.70833V2.84993H7.4987V2.70833C7.4987 2.25 7.1237 1.875 6.66536 1.875C6.20703 1.875 5.83203 2.25 5.83203 2.70833V2.87496C3.7487 2.99163 2.08203 4.71662 2.08203 6.82495V8.40006C2.08203 8.42507 2.09036 8.44993 2.09869 8.47493C2.09036 8.4916 2.08203 8.51667 2.08203 8.54167V14.375C2.08203 16.4417 3.76536 18.125 5.83203 18.125H14.1654C16.232 18.125 17.9154 16.4417 17.9154 14.375V8.54167C17.9154 8.51667 17.907 8.4916 17.8987 8.47493C17.907 8.44993 17.9154 8.42507 17.9154 8.40006V6.82495ZM6.66536 15.2083C6.20703 15.2083 5.83203 14.8333 5.83203 14.375C5.83203 13.9167 6.20703 13.5417 6.66536 13.5417C7.1237 13.5417 7.4987 13.9167 7.4987 14.375C7.4987 14.8333 7.1237 15.2083 6.66536 15.2083ZM6.66536 11.875C6.20703 11.875 5.83203 11.5 5.83203 11.0417C5.83203 10.5833 6.20703 10.2083 6.66536 10.2083C7.1237 10.2083 7.4987 10.5833 7.4987 11.0417C7.4987 11.5 7.1237 11.875 6.66536 11.875ZM9.9987 15.2083C9.54036 15.2083 9.16536 14.8333 9.16536 14.375C9.16536 13.9167 9.54036 13.5417 9.9987 13.5417C10.457 13.5417 10.832 13.9167 10.832 14.375C10.832 14.8333 10.457 15.2083 9.9987 15.2083ZM9.9987 11.875C9.54036 11.875 9.16536 11.5 9.16536 11.0417C9.16536 10.5833 9.54036 10.2083 9.9987 10.2083C10.457 10.2083 10.832 10.5833 10.832 11.0417C10.832 11.5 10.457 11.875 9.9987 11.875ZM13.332 15.2083C12.8737 15.2083 12.4987 14.8333 12.4987 14.375C12.4987 13.9167 12.8737 13.5417 13.332 13.5417C13.7904 13.5417 14.1654 13.9167 14.1654 14.375C14.1654 14.8333 13.7904 15.2083 13.332 15.2083ZM13.332 11.875C12.8737 11.875 12.4987 11.5 12.4987 11.0417C12.4987 10.5833 12.8737 10.2083 13.332 10.2083C13.7904 10.2083 14.1654 10.5833 14.1654 11.0417C14.1654 11.5 13.7904 11.875 13.332 11.875ZM16.2487 8.125H3.7487V6.82495C3.7487 5.61662 4.68204 4.63328 5.86537 4.53328C5.94037 4.91662 6.26536 5.20833 6.66536 5.20833C7.0737 5.20833 7.3987 4.90827 7.4737 4.5166H12.5237C12.5987 4.90827 12.9237 5.20833 13.332 5.20833C13.732 5.20833 14.057 4.91662 14.132 4.53328C15.3154 4.63328 16.2487 5.62495 16.2487 6.82495V8.125Z"
      fill="white"
    />
  </svg>
